<?xml version="1.0" encoding="UTF-8" standalone="no"?>
<!-- Generator: Adobe Illustrator 19.1.0, SVG Export Plug-In . SVG Version: 6.00 Build 0)  -->

<svg
   xmlns:dc="http://purl.org/dc/elements/1.1/"
   xmlns:cc="http://creativecommons.org/ns#"
   xmlns:rdf="http://www.w3.org/1999/02/22-rdf-syntax-ns#"
   xmlns:svg="http://www.w3.org/2000/svg"
   xmlns="http://www.w3.org/2000/svg"
   xmlns:sodipodi="http://sodipodi.sourceforge.net/DTD/sodipodi-0.dtd"
   xmlns:inkscape="http://www.inkscape.org/namespaces/inkscape"
   version="1.1"
   id="Layer_1"
   x="0px"
   y="0px"
   viewBox="0 0 423.59999 72.999998"
   xml:space="preserve"
   inkscape:version="0.91 r13725"
   sodipodi:docname="Logo.svg"
   width="423.60001"
   height="73"><metadata
     id="metadata47"><rdf:RDF><cc:Work
         rdf:about=""><dc:format>image/svg+xml</dc:format><dc:type
           rdf:resource="http://purl.org/dc/dcmitype/StillImage" /><dc:title></dc:title></cc:Work></rdf:RDF></metadata><defs
     id="defs45" /><sodipodi:namedview
     pagecolor="#ffffff"
     bordercolor="#666666"
     borderopacity="1"
     objecttolerance="10"
     gridtolerance="10"
     guidetolerance="10"
     inkscape:pageopacity="0"
     inkscape:pageshadow="2"
     inkscape:window-width="1680"
     inkscape:window-height="988"
     id="namedview43"
     showgrid="false"
     fit-margin-top="0"
     fit-margin-left="0"
     fit-margin-right="0"
     fit-margin-bottom="0"
     inkscape:zoom="1.5416105"
     inkscape:cx="124.32251"
     inkscape:cy="-89.581109"
     inkscape:window-x="1672"
     inkscape:window-y="-8"
     inkscape:window-maximized="1"
     inkscape:current-layer="Layer_1" /><style
     type="text/css"
     id="style3">
	.st0{fill:#CEC041;}
	.st1{fill:#0078B1;}
</style><g
     id="g5"
     transform="translate(-46.2,-40.2)"><polygon
       class="st0"
       points="83.9,40.2 46.2,80.1 99.9,87 "
       id="polygon7"
       style="fill:#cec041" /><polygon
       class="st1"
       points="57.3,106.1 54.8,84 97.2,89.7 97.8,113.2 "
       id="polygon9"
       style="fill:#0078b1" /><polyline
       class="st0"
       points="83.9,40.2 118.2,70.6 101.7,86.3  "
       id="polyline11"
       style="fill:#cec041" /></g><g
     id="g13"
     transform="translate(-46.2,-40.2)"><path
       class="st1"
       d="m 161.5,79.7 c 0,4 -0.9,7.3 -2.8,9.7 -1.9,2.5 -4.5,3.7 -7.9,3.7 -1.6,0 -3,-0.3 -4.2,-0.8 -1.2,-0.6 -2.2,-1.4 -3.1,-2.5 l 0,13.4 -6.2,0 0,-38.2 5.2,0 0.6,3.5 c 0.9,-1.3 2,-2.3 3.2,-3 1.3,-0.7 2.7,-1 4.4,-1 3.4,0 6.1,1.4 8,4.1 1.9,2.7 2.8,6.3 2.8,10.7 l 0,0.4 z m -6.2,-0.5 c 0,-2.8 -0.5,-5.1 -1.6,-6.9 -1.1,-1.8 -2.7,-2.7 -4.8,-2.7 -1.3,0 -2.4,0.3 -3.3,0.8 -0.9,0.6 -1.6,1.3 -2.2,2.3 l 0,12.5 c 0.5,1 1.3,1.7 2.2,2.2 0.9,0.5 2,0.8 3.3,0.8 2.1,0 3.7,-0.8 4.7,-2.3 1,-1.6 1.6,-3.6 1.6,-6.1 l 0,-0.6 z"
       id="path15"
       inkscape:connector-curvature="0"
       style="fill:#0078b1" /><path
       class="st1"
       d="M 180.7,70.6 178,70.5 c -1.2,0 -2.2,0.3 -3,0.8 -0.8,0.5 -1.4,1.2 -1.9,2.2 l 0,19.2 -6.2,0 0,-27.7 5.7,0 0.4,4 c 0.7,-1.4 1.6,-2.5 2.7,-3.3 1.1,-0.8 2.4,-1.2 3.8,-1.2 0.4,0 0.7,0 1,0.1 0.3,0.1 0.6,0.1 0.9,0.2 l -0.7,5.8 z"
       id="path17"
       inkscape:connector-curvature="0"
       style="fill:#0078b1" /><path
       class="st1"
       d="m 183.9,78.6 c 0,-4.1 1.1,-7.5 3.4,-10.1 2.3,-2.6 5.4,-4 9.3,-4 4,0 7.1,1.3 9.3,4 2.3,2.6 3.4,6 3.4,10.1 l 0,0.5 c 0,4.2 -1.1,7.5 -3.4,10.2 -2.2,2.6 -5.3,3.9 -9.3,3.9 -4,0 -7.1,-1.3 -9.3,-3.9 -2.2,-2.6 -3.4,-6 -3.4,-10.1 l 0,-0.6 z m 6.2,0.5 c 0,2.7 0.5,4.9 1.6,6.6 1,1.7 2.7,2.5 4.9,2.5 2.2,0 3.8,-0.8 4.9,-2.5 1.1,-1.7 1.6,-3.9 1.6,-6.6 l 0,-0.5 c 0,-2.6 -0.5,-4.8 -1.6,-6.5 -1.1,-1.7 -2.7,-2.6 -4.9,-2.6 -2.2,0 -3.8,0.9 -4.9,2.6 -1.1,1.7 -1.6,3.9 -1.6,6.5 l 0,0.5 z"
       id="path19"
       inkscape:connector-curvature="0"
       style="fill:#0078b1" /><path
       class="st1"
       d="m 238.9,79.7 c 0,4 -0.9,7.3 -2.8,9.7 -1.9,2.5 -4.5,3.7 -7.9,3.7 -1.6,0 -3,-0.3 -4.2,-0.8 -1.2,-0.6 -2.2,-1.4 -3.1,-2.5 l 0,13.4 -6.2,0 0,-38.2 5.2,0 0.6,3.5 c 0.9,-1.3 2,-2.3 3.2,-3 1.3,-0.7 2.7,-1 4.4,-1 3.4,0 6.1,1.4 8,4.1 1.9,2.7 2.8,6.3 2.8,10.7 l 0,0.4 z m -6.2,-0.5 c 0,-2.8 -0.5,-5.1 -1.6,-6.9 -1.1,-1.8 -2.7,-2.7 -4.8,-2.7 -1.3,0 -2.4,0.3 -3.3,0.8 -0.9,0.6 -1.6,1.3 -2.2,2.3 l 0,12.5 c 0.5,1 1.3,1.7 2.2,2.2 0.9,0.5 2,0.8 3.3,0.8 2.1,0 3.7,-0.8 4.7,-2.3 1,-1.5 1.6,-3.6 1.6,-6.1 l 0,-0.6 z"
       id="path21"
       inkscape:connector-curvature="0"
       style="fill:#0078b1" /><path
       class="st1"
       d="m 256.2,93.2 c -3.9,0 -7,-1.3 -9.4,-3.8 -2.3,-2.6 -3.5,-5.9 -3.5,-9.9 l 0,-1 c 0,-4 1.2,-7.4 3.5,-10 2.3,-2.6 5.2,-4 8.7,-3.9 3.7,0 6.6,1.1 8.6,3.4 2,2.3 3,5.3 3,9.1 l 0,3.7 -17.2,0 -0.1,0.1 c 0.1,2.2 0.7,4 1.9,5.4 1.2,1.4 2.8,2.1 4.9,2.1 1.7,0 3.1,-0.2 4.3,-0.6 1.2,-0.4 2.3,-1 3.4,-1.8 l 2,4.1 c -1,0.9 -2.4,1.7 -4.1,2.3 -1.8,0.5 -3.8,0.8 -6,0.8 z m -0.8,-23.7 c -1.5,0 -2.8,0.6 -3.8,1.8 -1,1.2 -1.6,2.8 -1.8,4.6 l 0.1,0.1 11,0 0,-0.6 c 0,-1.8 -0.4,-3.2 -1.3,-4.3 -1,-1.1 -2.4,-1.6 -4.2,-1.6 z"
       id="path23"
       inkscape:connector-curvature="0"
       style="fill:#0078b1" /><path
       class="st1"
       d="m 285.8,70.6 -2.7,-0.1 c -1.2,0 -2.2,0.3 -3,0.8 -0.8,0.5 -1.4,1.2 -1.9,2.2 l 0,19.2 -6.2,0 0,-27.7 5.7,0 0.4,4 c 0.7,-1.4 1.6,-2.5 2.7,-3.3 1.1,-0.8 2.4,-1.2 3.8,-1.2 0.4,0 0.7,0 1,0.1 0.3,0.1 0.6,0.1 0.9,0.2 l -0.7,5.8 z"
       id="path25"
       inkscape:connector-curvature="0"
       style="fill:#0078b1" /><path
       class="st1"
       d="m 298.4,58.3 0,6.7 5,0 0,4.6 -5,0 0,15.3 c 0,1.1 0.2,2 0.7,2.4 0.5,0.5 1.1,0.7 2,0.7 0.3,0 0.7,0 1,-0.1 0.3,-0.1 0.6,-0.1 0.9,-0.2 l 0.7,4.5 c -0.5,0.3 -1.2,0.5 -1.9,0.7 -0.7,0.2 -1.5,0.2 -2.3,0.2 -2.3,0 -4.1,-0.7 -5.4,-2 -1.3,-1.3 -1.9,-3.4 -1.9,-6.3 l 0,-15.2 -4.2,0 0,-4.6 4.2,0 0,-6.7 6.2,0 z"
       id="path27"
       inkscape:connector-curvature="0"
       style="fill:#0078b1" /><path
       class="st1"
       d="m 318,81.6 0.6,2.8 0.2,0 6.1,-19.3 6.8,0 -11.4,31.8 c -0.7,1.9 -1.8,3.6 -3.1,4.9 -1.3,1.4 -3.2,2 -5.6,2 -0.5,0 -1.1,-0.1 -1.6,-0.2 -0.6,-0.1 -1.2,-0.2 -1.7,-0.4 l 0.7,-4.8 c 0.2,0 0.5,0 0.9,0.1 0.4,0 0.7,0.1 0.9,0.1 1.1,0 2,-0.4 2.7,-1.1 0.7,-0.8 1.2,-1.7 1.6,-2.7 l 1,-2.5 L 306,65 l 6.8,0 5.2,16.6 z"
       id="path29"
       inkscape:connector-curvature="0"
       style="fill:#0078b1" /><path
       class="st0"
       d="m 335.3,92.6 -0.3,0 c -1.6,0 -3,-1.3 -3,-3 l 0,0 c 0,-1.6 1.3,-3 3,-3 l 0.2,0 c 1.6,0 3,1.3 3,3 l 0,0 c 0.1,1.7 -1.3,3 -2.9,3 z"
       id="path31"
       inkscape:connector-curvature="0"
       style="fill:#cec041" /><path
       class="st1"
       d="m 357.5,88.2 c 1.5,0 2.8,-0.4 3.8,-1.3 1,-0.9 1.6,-2 1.6,-3.3 l 5.6,0 0.1,0.2 c 0.1,2.6 -1,4.8 -3.2,6.7 -2.2,1.9 -4.8,2.8 -7.9,2.8 -4.1,0 -7.2,-1.3 -9.4,-3.9 -2.2,-2.6 -3.3,-5.9 -3.3,-10 l 0,-0.9 c 0,-4 1.1,-7.3 3.3,-10 2.2,-2.7 5.3,-3.9 9.4,-3.9 3.3,0 6,1 8.1,2.9 2.1,1.9 3.1,4.4 3,7.4 l -0.1,0.2 -5.6,0 c 0,-1.5 -0.5,-2.8 -1.5,-3.9 -1,-1.1 -2.3,-1.6 -3.9,-1.6 -2.3,0 -4,0.8 -5,2.5 -1,1.7 -1.5,3.8 -1.5,6.4 l 0,0.9 c 0,2.6 0.5,4.7 1.5,6.4 1,1.6 2.6,2.4 5,2.4 z"
       id="path33"
       inkscape:connector-curvature="0"
       style="fill:#0078b1" /><path
       class="st1"
       d="m 387.3,70.6 -2.7,-0.1 c -1.2,0 -2.2,0.3 -3,0.8 -0.8,0.5 -1.4,1.2 -1.9,2.2 l 0,19.2 -6.2,0 0,-27.7 5.7,0 0.4,4 c 0.7,-1.4 1.6,-2.5 2.7,-3.3 1.1,-0.8 2.4,-1.2 3.8,-1.2 0.4,0 0.7,0 1,0.1 0.3,0.1 0.6,0.1 0.9,0.2 l -0.7,5.8 z"
       id="path35"
       inkscape:connector-curvature="0"
       style="fill:#0078b1" /><path
       class="st1"
       d="m 390.5,78.6 c 0,-4.1 1.1,-7.5 3.4,-10.1 2.3,-2.6 5.4,-4 9.3,-4 4,0 7.1,1.3 9.3,4 2.3,2.6 3.4,6 3.4,10.1 l 0,0.5 c 0,4.2 -1.1,7.5 -3.4,10.2 -2.2,2.6 -5.3,3.9 -9.3,3.9 -4,0 -7.1,-1.3 -9.3,-3.9 -2.2,-2.6 -3.4,-6 -3.4,-10.1 l 0,-0.6 z m 6.2,0.5 c 0,2.7 0.5,4.9 1.6,6.6 1,1.7 2.7,2.5 4.9,2.5 2.2,0 3.8,-0.8 4.9,-2.5 1.1,-1.7 1.6,-3.9 1.6,-6.6 l 0,-0.5 c 0,-2.6 -0.5,-4.8 -1.6,-6.5 -1.1,-1.7 -2.7,-2.6 -4.9,-2.6 -2.2,0 -3.8,0.9 -4.9,2.6 -1.1,1.7 -1.6,3.9 -1.6,6.5 l 0,0.5 z"
       id="path37"
       inkscape:connector-curvature="0"
       style="fill:#0078b1" /><path
       class="st1"
       d="m 436.8,85.1 c 0,-1 -0.4,-1.7 -1.2,-2.4 -0.8,-0.6 -2.3,-1.2 -4.6,-1.7 -3.3,-0.7 -5.8,-1.7 -7.5,-3 -1.7,-1.3 -2.5,-3 -2.5,-5.3 0,-2.3 1,-4.3 2.9,-5.9 2,-1.6 4.5,-2.5 7.7,-2.5 3.4,0 6.1,0.8 8,2.5 2,1.7 2.9,3.7 2.8,6.2 l -0.1,0.2 -6,0 c 0,-1.1 -0.4,-2.1 -1.3,-2.9 -0.9,-0.8 -2.1,-1.2 -3.6,-1.2 -1.5,0 -2.6,0.3 -3.4,1 -0.8,0.7 -1.2,1.5 -1.2,2.5 0,1 0.4,1.7 1.1,2.3 0.7,0.6 2.2,1.1 4.5,1.5 3.5,0.7 6.1,1.7 7.7,3 1.7,1.3 2.5,3.1 2.5,5.3 0,2.5 -1,4.5 -3.1,6.1 -2.1,1.6 -4.8,2.3 -8.1,2.3 -3.6,0 -6.4,-0.9 -8.5,-2.8 -2.1,-1.8 -3.1,-4 -3,-6.3 l 0.1,-0.2 5.8,0 c 0.1,1.6 0.6,2.8 1.7,3.5 1.1,0.7 2.4,1.1 4,1.1 1.6,0 2.8,-0.3 3.7,-0.9 0.9,-0.6 1.6,-1.3 1.6,-2.4 z"
       id="path39"
       inkscape:connector-curvature="0"
       style="fill:#0078b1" /><path
       class="st1"
       d="m 464,85.1 c 0,-1 -0.4,-1.7 -1.2,-2.4 -0.8,-0.6 -2.3,-1.2 -4.6,-1.7 -3.3,-0.7 -5.8,-1.7 -7.5,-3 -1.7,-1.3 -2.5,-3 -2.5,-5.3 0,-2.3 1,-4.3 2.9,-5.9 2,-1.6 4.5,-2.5 7.7,-2.5 3.4,0 6.1,0.8 8,2.5 2,1.7 2.9,3.7 2.8,6.2 l -0.1,0.2 -6,0 c 0,-1.1 -0.4,-2.1 -1.3,-2.9 -0.9,-0.8 -2.1,-1.2 -3.6,-1.2 -1.5,0 -2.6,0.3 -3.4,1 -0.8,0.7 -1.2,1.5 -1.2,2.5 0,1 0.4,1.7 1.1,2.3 0.7,0.6 2.2,1.1 4.5,1.5 3.5,0.7 6.1,1.7 7.7,3 1.7,1.3 2.5,3.1 2.5,5.3 0,2.5 -1,4.5 -3.1,6.1 -2.1,1.6 -4.8,2.3 -8.1,2.3 -3.6,0 -6.4,-0.9 -8.5,-2.8 -2.1,-1.8 -3.1,-4 -3,-6.3 l 0.1,-0.2 5.8,0 c 0.1,1.6 0.6,2.8 1.7,3.5 1.1,0.7 2.4,1.1 4,1.1 1.6,0 2.8,-0.3 3.7,-0.9 1.2,-0.5 1.6,-1.3 1.6,-2.4 z"
       id="path41"
       inkscape:connector-curvature="0"
       style="fill:#0078b1" /></g></svg>